# xmcd
#
# Track frame offsets:
#	150
#	18485
#	34645
#	49084
#	68812
#	79231
#	88556
#	117824
#	131204
#	147038
#	158854
#	167017
#	178225
#	191107
#	203262
#	215823
#	230766
#	239665
#	253254
#	272057
#	284475
#	299097
#	311059
#	322650
#
# Disc length: 4593 seconds
#
# Revision: 0
# Processed by: cddbd v1.5.2PL0 Copyright (c) Steve Scherf et al.
# Submitted via: dBpowerAMP V4.0
#
DISCID=7211ef18
DTITLE=Banda Azorra - Banda Azorra Ao Vivo
DYEAR=2008
DGENRE=Baiana
TTITLE0=Eu Amo Salvador
TTITLE1=Solteiro em Salvador
TTITLE2=Love Love
TTITLE3=Saudade Vai Bater
TTITLE4=Eu Quero Esse Amor
TTITLE5=Erva Venenosa
TTITLE6=Swingow
TTITLE7=Caça e Caçador
TTITLE8=Natiruts
TTITLE9=Dia de Feira
TTITLE10=Me Chama de Amor
TTITLE11=Aqui Não Para Não
TTITLE12=Tome Tome
TTITLE13=Não Vale Mais Chorar
TTITLE14=Amigo Apaixonado
TTITLE15=Choram as Rosas
TTITLE16=Sem Radar
TTITLE17=Não Precisa Mudar
TTITLE18=Axezeiro
TTITLE19=Boa Sorte
TTITLE20=Resposta
TTITLE21=Eu Vou Pro Mar
TTITLE22=Minha Estrela
TTITLE23=Eu Amo Salvador
EXTD=
EXTT0=
EXTT1=
EXTT2=
EXTT3=
EXTT4=
EXTT5=
EXTT6=
EXTT7=
EXTT8=
EXTT9=
EXTT10=
EXTT11=
EXTT12=
EXTT13=
EXTT14=
EXTT15=
EXTT16=
EXTT17=
EXTT18=
EXTT19=
EXTT20=
EXTT21=
EXTT22=
EXTT23=
PLAYORDER=
